<mxfile host="app.diagrams.net" agent="Mozilla/5.0 (Windows NT 10.0; Win64; x64) AppleWebKit/537.36 (KHTML, like Gecko) Chrome/134.0.0.0 Safari/537.36" version="26.1.1">
  <diagram name="Page-1" id="ySRm1STF3ZtucR_X7EqH">
    <mxGraphModel dx="1687" dy="885" grid="1" gridSize="10" guides="1" tooltips="1" connect="1" arrows="1" fold="1" page="1" pageScale="1" pageWidth="827" pageHeight="1169" math="0" shadow="0">
      <root>
        <mxCell id="0" />
        <mxCell id="1" parent="0" />
        <mxCell id="HJMxeG1oSkIeelWJfz3V-1" value="Ploybout" style="shape=rect;html=1;verticalAlign=top;fontStyle=1;whiteSpace=wrap;align=center;" vertex="1" parent="1">
          <mxGeometry x="170" y="10" width="540" height="630" as="geometry" />
        </mxCell>
        <mxCell id="HJMxeG1oSkIeelWJfz3V-2" value="Administrateur" style="shape=umlActor;verticalLabelPosition=bottom;verticalAlign=top;html=1;outlineConnect=0;" vertex="1" parent="1">
          <mxGeometry x="98.98" y="310" width="30" height="60" as="geometry" />
        </mxCell>
        <mxCell id="HJMxeG1oSkIeelWJfz3V-5" value="Voir la liste des cartes" style="ellipse;whiteSpace=wrap;html=1;" vertex="1" parent="1">
          <mxGeometry x="179" y="260" width="120" height="40" as="geometry" />
        </mxCell>
        <mxCell id="HJMxeG1oSkIeelWJfz3V-12" value="Voir la liste des utilisateurs" style="ellipse;whiteSpace=wrap;html=1;" vertex="1" parent="1">
          <mxGeometry x="179" y="32.5" width="120" height="40" as="geometry" />
        </mxCell>
        <mxCell id="HJMxeG1oSkIeelWJfz3V-14" value="Voir la liste des équipements" style="ellipse;whiteSpace=wrap;html=1;" vertex="1" parent="1">
          <mxGeometry x="179" y="140" width="120" height="40" as="geometry" />
        </mxCell>
        <mxCell id="HJMxeG1oSkIeelWJfz3V-26" value="" style="endArrow=none;html=1;rounded=0;exitX=0.5;exitY=0;exitDx=0;exitDy=0;exitPerimeter=0;" edge="1" parent="1" target="HJMxeG1oSkIeelWJfz3V-12" source="HJMxeG1oSkIeelWJfz3V-2">
          <mxGeometry width="50" height="50" relative="1" as="geometry">
            <mxPoint x="139" y="80" as="sourcePoint" />
            <mxPoint x="409" y="325" as="targetPoint" />
            <Array as="points">
              <mxPoint x="114" y="53" />
            </Array>
          </mxGeometry>
        </mxCell>
        <mxCell id="HJMxeG1oSkIeelWJfz3V-27" value="" style="endArrow=none;html=1;rounded=0;" edge="1" parent="1" target="HJMxeG1oSkIeelWJfz3V-14">
          <mxGeometry width="50" height="50" relative="1" as="geometry">
            <mxPoint x="130" y="310" as="sourcePoint" />
            <mxPoint x="211" y="-45" as="targetPoint" />
          </mxGeometry>
        </mxCell>
        <mxCell id="HJMxeG1oSkIeelWJfz3V-69" value="Voir les actualités" style="ellipse;whiteSpace=wrap;html=1;" vertex="1" parent="1">
          <mxGeometry x="174" y="430" width="120" height="40" as="geometry" />
        </mxCell>
        <mxCell id="HJMxeG1oSkIeelWJfz3V-70" value="Voir les mentions légales" style="ellipse;whiteSpace=wrap;html=1;" vertex="1" parent="1">
          <mxGeometry x="173" y="500" width="120" height="40" as="geometry" />
        </mxCell>
        <mxCell id="HJMxeG1oSkIeelWJfz3V-71" value="Modifier un utilisateur" style="ellipse;whiteSpace=wrap;html=1;" vertex="1" parent="1">
          <mxGeometry x="360" y="32.5" width="120" height="40" as="geometry" />
        </mxCell>
        <mxCell id="HJMxeG1oSkIeelWJfz3V-72" value="Désactiver un utilisateur" style="ellipse;whiteSpace=wrap;html=1;" vertex="1" parent="1">
          <mxGeometry x="540" y="32.5" width="120" height="40" as="geometry" />
        </mxCell>
        <mxCell id="HJMxeG1oSkIeelWJfz3V-73" value="Supprimer un utilisateur" style="ellipse;whiteSpace=wrap;html=1;" vertex="1" parent="1">
          <mxGeometry x="540" y="80" width="120" height="40" as="geometry" />
        </mxCell>
        <mxCell id="HJMxeG1oSkIeelWJfz3V-74" value="Ajouter un utilisateur" style="ellipse;whiteSpace=wrap;html=1;" vertex="1" parent="1">
          <mxGeometry x="360" y="80" width="120" height="40" as="geometry" />
        </mxCell>
        <mxCell id="HJMxeG1oSkIeelWJfz3V-75" value="Voir le guide" style="ellipse;whiteSpace=wrap;html=1;" vertex="1" parent="1">
          <mxGeometry x="179" y="580" width="120" height="40" as="geometry" />
        </mxCell>
        <mxCell id="HJMxeG1oSkIeelWJfz3V-76" value="Modifier le guide" style="ellipse;whiteSpace=wrap;html=1;" vertex="1" parent="1">
          <mxGeometry x="356" y="580" width="120" height="40" as="geometry" />
        </mxCell>
        <mxCell id="HJMxeG1oSkIeelWJfz3V-77" value="Modifier les mentions légales" style="ellipse;whiteSpace=wrap;html=1;" vertex="1" parent="1">
          <mxGeometry x="350" y="500" width="140" height="40" as="geometry" />
        </mxCell>
        <mxCell id="HJMxeG1oSkIeelWJfz3V-78" value="Editer une actualité" style="ellipse;whiteSpace=wrap;html=1;" vertex="1" parent="1">
          <mxGeometry x="355" y="380" width="120" height="40" as="geometry" />
        </mxCell>
        <mxCell id="HJMxeG1oSkIeelWJfz3V-79" value="Ajouter une actualité" style="ellipse;whiteSpace=wrap;html=1;" vertex="1" parent="1">
          <mxGeometry x="356" y="430" width="120" height="40" as="geometry" />
        </mxCell>
        <mxCell id="HJMxeG1oSkIeelWJfz3V-80" value="Supprimer une actualité" style="ellipse;whiteSpace=wrap;html=1;" vertex="1" parent="1">
          <mxGeometry x="540" y="380" width="120" height="40" as="geometry" />
        </mxCell>
        <mxCell id="HJMxeG1oSkIeelWJfz3V-81" value="Ajouter une carte" style="ellipse;whiteSpace=wrap;html=1;" vertex="1" parent="1">
          <mxGeometry x="355" y="310" width="120" height="40" as="geometry" />
        </mxCell>
        <mxCell id="HJMxeG1oSkIeelWJfz3V-82" value="Modifier une carte" style="ellipse;whiteSpace=wrap;html=1;" vertex="1" parent="1">
          <mxGeometry x="355" y="260" width="120" height="40" as="geometry" />
        </mxCell>
        <mxCell id="HJMxeG1oSkIeelWJfz3V-83" value="Supprimer une carte" style="ellipse;whiteSpace=wrap;html=1;" vertex="1" parent="1">
          <mxGeometry x="540" y="260" width="120" height="40" as="geometry" />
        </mxCell>
        <mxCell id="HJMxeG1oSkIeelWJfz3V-84" value="Ajouter un équipement" style="ellipse;whiteSpace=wrap;html=1;" vertex="1" parent="1">
          <mxGeometry x="360" y="190" width="120" height="40" as="geometry" />
        </mxCell>
        <mxCell id="HJMxeG1oSkIeelWJfz3V-85" value="Modifier un équipement" style="ellipse;whiteSpace=wrap;html=1;" vertex="1" parent="1">
          <mxGeometry x="360" y="140" width="120" height="40" as="geometry" />
        </mxCell>
        <mxCell id="HJMxeG1oSkIeelWJfz3V-86" value="Supprimer un équipement" style="ellipse;whiteSpace=wrap;html=1;" vertex="1" parent="1">
          <mxGeometry x="540" y="140" width="120" height="40" as="geometry" />
        </mxCell>
        <mxCell id="HJMxeG1oSkIeelWJfz3V-89" value="&amp;lt;&amp;lt;extend&amp;gt;&amp;gt;" style="html=1;verticalAlign=bottom;labelBackgroundColor=none;endArrow=open;endFill=0;dashed=1;rounded=0;exitX=0;exitY=0.5;exitDx=0;exitDy=0;entryX=1;entryY=0.5;entryDx=0;entryDy=0;" edge="1" parent="1" source="HJMxeG1oSkIeelWJfz3V-71" target="HJMxeG1oSkIeelWJfz3V-12">
          <mxGeometry width="160" relative="1" as="geometry">
            <mxPoint x="330" y="100" as="sourcePoint" />
            <mxPoint x="280" y="50" as="targetPoint" />
          </mxGeometry>
        </mxCell>
        <mxCell id="HJMxeG1oSkIeelWJfz3V-90" value="&amp;lt;&amp;lt;extend&amp;gt;&amp;gt;" style="html=1;verticalAlign=bottom;labelBackgroundColor=none;endArrow=open;endFill=0;dashed=1;rounded=0;exitX=0;exitY=0.5;exitDx=0;exitDy=0;entryX=0.916;entryY=0.833;entryDx=0;entryDy=0;entryPerimeter=0;" edge="1" parent="1" source="HJMxeG1oSkIeelWJfz3V-74" target="HJMxeG1oSkIeelWJfz3V-12">
          <mxGeometry x="-0.3232" y="-9" width="160" relative="1" as="geometry">
            <mxPoint x="370" y="63" as="sourcePoint" />
            <mxPoint x="309" y="63" as="targetPoint" />
            <mxPoint as="offset" />
          </mxGeometry>
        </mxCell>
        <mxCell id="HJMxeG1oSkIeelWJfz3V-91" value="&amp;lt;&amp;lt;extend&amp;gt;&amp;gt;" style="html=1;verticalAlign=bottom;labelBackgroundColor=none;endArrow=open;endFill=0;dashed=1;rounded=0;exitX=0;exitY=0.5;exitDx=0;exitDy=0;" edge="1" parent="1" source="HJMxeG1oSkIeelWJfz3V-73">
          <mxGeometry x="-0.4581" y="-2" width="160" relative="1" as="geometry">
            <mxPoint x="500" y="86.5" as="sourcePoint" />
            <mxPoint x="460" y="70" as="targetPoint" />
            <mxPoint as="offset" />
          </mxGeometry>
        </mxCell>
        <mxCell id="HJMxeG1oSkIeelWJfz3V-92" value="&amp;lt;&amp;lt;extend&amp;gt;&amp;gt;" style="html=1;verticalAlign=bottom;labelBackgroundColor=none;endArrow=open;endFill=0;dashed=1;rounded=0;exitX=0;exitY=0.5;exitDx=0;exitDy=0;entryX=1;entryY=0.5;entryDx=0;entryDy=0;" edge="1" parent="1" source="HJMxeG1oSkIeelWJfz3V-72" target="HJMxeG1oSkIeelWJfz3V-71">
          <mxGeometry x="-0.3232" y="-9" width="160" relative="1" as="geometry">
            <mxPoint x="500" y="26.5" as="sourcePoint" />
            <mxPoint x="460" y="38" as="targetPoint" />
            <mxPoint as="offset" />
          </mxGeometry>
        </mxCell>
        <mxCell id="HJMxeG1oSkIeelWJfz3V-94" value="&amp;lt;&amp;lt;extend&amp;gt;&amp;gt;" style="html=1;verticalAlign=bottom;labelBackgroundColor=none;endArrow=open;endFill=0;dashed=1;rounded=0;exitX=0;exitY=0.5;exitDx=0;exitDy=0;entryX=1;entryY=0.5;entryDx=0;entryDy=0;" edge="1" parent="1" target="HJMxeG1oSkIeelWJfz3V-85">
          <mxGeometry x="-0.4581" y="-2" width="160" relative="1" as="geometry">
            <mxPoint x="540" y="160" as="sourcePoint" />
            <mxPoint x="460" y="130" as="targetPoint" />
            <mxPoint as="offset" />
          </mxGeometry>
        </mxCell>
        <mxCell id="HJMxeG1oSkIeelWJfz3V-95" value="&amp;lt;&amp;lt;extend&amp;gt;&amp;gt;" style="html=1;verticalAlign=bottom;labelBackgroundColor=none;endArrow=open;endFill=0;dashed=1;rounded=0;exitX=0;exitY=0.5;exitDx=0;exitDy=0;entryX=1;entryY=0.5;entryDx=0;entryDy=0;" edge="1" parent="1">
          <mxGeometry x="-0.4581" y="-2" width="160" relative="1" as="geometry">
            <mxPoint x="359" y="159.66" as="sourcePoint" />
            <mxPoint x="299" y="159.66" as="targetPoint" />
            <mxPoint as="offset" />
          </mxGeometry>
        </mxCell>
        <mxCell id="HJMxeG1oSkIeelWJfz3V-96" value="&amp;lt;&amp;lt;extend&amp;gt;&amp;gt;" style="html=1;verticalAlign=bottom;labelBackgroundColor=none;endArrow=open;endFill=0;dashed=1;rounded=0;exitX=0;exitY=0.5;exitDx=0;exitDy=0;entryX=0.916;entryY=0.801;entryDx=0;entryDy=0;entryPerimeter=0;" edge="1" parent="1" target="HJMxeG1oSkIeelWJfz3V-14">
          <mxGeometry x="-0.4581" y="-2" width="160" relative="1" as="geometry">
            <mxPoint x="360" y="209.66" as="sourcePoint" />
            <mxPoint x="300" y="209.66" as="targetPoint" />
            <mxPoint as="offset" />
          </mxGeometry>
        </mxCell>
        <mxCell id="HJMxeG1oSkIeelWJfz3V-97" value="&amp;lt;&amp;lt;extend&amp;gt;&amp;gt;" style="html=1;verticalAlign=bottom;labelBackgroundColor=none;endArrow=open;endFill=0;dashed=1;rounded=0;exitX=0;exitY=0.5;exitDx=0;exitDy=0;entryX=1;entryY=0.5;entryDx=0;entryDy=0;" edge="1" parent="1">
          <mxGeometry x="-0.4581" y="-2" width="160" relative="1" as="geometry">
            <mxPoint x="359" y="279.65999999999997" as="sourcePoint" />
            <mxPoint x="299" y="279.65999999999997" as="targetPoint" />
            <mxPoint as="offset" />
          </mxGeometry>
        </mxCell>
        <mxCell id="HJMxeG1oSkIeelWJfz3V-98" value="&amp;lt;&amp;lt;extend&amp;gt;&amp;gt;" style="html=1;verticalAlign=bottom;labelBackgroundColor=none;endArrow=open;endFill=0;dashed=1;rounded=0;exitX=0;exitY=0.5;exitDx=0;exitDy=0;entryX=0.939;entryY=0.818;entryDx=0;entryDy=0;entryPerimeter=0;" edge="1" parent="1" target="HJMxeG1oSkIeelWJfz3V-5">
          <mxGeometry x="-0.4581" y="-2" width="160" relative="1" as="geometry">
            <mxPoint x="353" y="329.65999999999997" as="sourcePoint" />
            <mxPoint x="293" y="329.65999999999997" as="targetPoint" />
            <mxPoint as="offset" />
          </mxGeometry>
        </mxCell>
        <mxCell id="HJMxeG1oSkIeelWJfz3V-99" value="&amp;lt;&amp;lt;extend&amp;gt;&amp;gt;" style="html=1;verticalAlign=bottom;labelBackgroundColor=none;endArrow=open;endFill=0;dashed=1;rounded=0;exitX=0;exitY=0.5;exitDx=0;exitDy=0;entryX=1;entryY=0.5;entryDx=0;entryDy=0;" edge="1" parent="1">
          <mxGeometry x="-0.4581" y="-2" width="160" relative="1" as="geometry">
            <mxPoint x="536" y="279.65999999999997" as="sourcePoint" />
            <mxPoint x="476" y="279.65999999999997" as="targetPoint" />
            <mxPoint as="offset" />
          </mxGeometry>
        </mxCell>
        <mxCell id="HJMxeG1oSkIeelWJfz3V-100" value="&amp;lt;&amp;lt;extend&amp;gt;&amp;gt;" style="html=1;verticalAlign=bottom;labelBackgroundColor=none;endArrow=open;endFill=0;dashed=1;rounded=0;exitX=0;exitY=0.5;exitDx=0;exitDy=0;entryX=1;entryY=0.5;entryDx=0;entryDy=0;" edge="1" parent="1">
          <mxGeometry x="-0.4581" y="-2" width="160" relative="1" as="geometry">
            <mxPoint x="535" y="399.65999999999997" as="sourcePoint" />
            <mxPoint x="475" y="399.65999999999997" as="targetPoint" />
            <mxPoint as="offset" />
          </mxGeometry>
        </mxCell>
        <mxCell id="HJMxeG1oSkIeelWJfz3V-101" value="&amp;lt;&amp;lt;extend&amp;gt;&amp;gt;" style="html=1;verticalAlign=bottom;labelBackgroundColor=none;endArrow=open;endFill=0;dashed=1;rounded=0;exitX=0;exitY=0.5;exitDx=0;exitDy=0;entryX=1;entryY=0.5;entryDx=0;entryDy=0;" edge="1" parent="1">
          <mxGeometry x="-0.4581" y="-2" width="160" relative="1" as="geometry">
            <mxPoint x="350" y="520" as="sourcePoint" />
            <mxPoint x="290" y="520" as="targetPoint" />
            <mxPoint as="offset" />
          </mxGeometry>
        </mxCell>
        <mxCell id="HJMxeG1oSkIeelWJfz3V-102" value="&amp;lt;&amp;lt;extend&amp;gt;&amp;gt;" style="html=1;verticalAlign=bottom;labelBackgroundColor=none;endArrow=open;endFill=0;dashed=1;rounded=0;exitX=0;exitY=0.5;exitDx=0;exitDy=0;entryX=1;entryY=0.5;entryDx=0;entryDy=0;" edge="1" parent="1">
          <mxGeometry x="-0.4581" y="-2" width="160" relative="1" as="geometry">
            <mxPoint x="354" y="599.66" as="sourcePoint" />
            <mxPoint x="294" y="599.66" as="targetPoint" />
            <mxPoint as="offset" />
          </mxGeometry>
        </mxCell>
        <mxCell id="HJMxeG1oSkIeelWJfz3V-103" value="&amp;lt;&amp;lt;extend&amp;gt;&amp;gt;" style="html=1;verticalAlign=bottom;labelBackgroundColor=none;endArrow=open;endFill=0;dashed=1;rounded=0;exitX=0;exitY=0.5;exitDx=0;exitDy=0;entryX=1.004;entryY=0.396;entryDx=0;entryDy=0;entryPerimeter=0;" edge="1" parent="1" target="HJMxeG1oSkIeelWJfz3V-69">
          <mxGeometry x="-0.4581" y="-2" width="160" relative="1" as="geometry">
            <mxPoint x="356" y="406.65999999999997" as="sourcePoint" />
            <mxPoint x="295" y="370" as="targetPoint" />
            <mxPoint as="offset" />
          </mxGeometry>
        </mxCell>
        <mxCell id="HJMxeG1oSkIeelWJfz3V-104" value="&amp;lt;&amp;lt;extend&amp;gt;&amp;gt;" style="html=1;verticalAlign=bottom;labelBackgroundColor=none;endArrow=open;endFill=0;dashed=1;rounded=0;exitX=-0.013;exitY=0.637;exitDx=0;exitDy=0;entryX=0.986;entryY=0.637;entryDx=0;entryDy=0;entryPerimeter=0;exitPerimeter=0;" edge="1" parent="1" source="HJMxeG1oSkIeelWJfz3V-79" target="HJMxeG1oSkIeelWJfz3V-69">
          <mxGeometry x="-0.4581" y="-2" width="160" relative="1" as="geometry">
            <mxPoint x="366" y="416.65999999999997" as="sourcePoint" />
            <mxPoint x="304" y="456" as="targetPoint" />
            <mxPoint as="offset" />
          </mxGeometry>
        </mxCell>
        <mxCell id="HJMxeG1oSkIeelWJfz3V-106" value="" style="endArrow=none;html=1;rounded=0;entryX=0;entryY=0.5;entryDx=0;entryDy=0;" edge="1" parent="1" target="HJMxeG1oSkIeelWJfz3V-5">
          <mxGeometry width="50" height="50" relative="1" as="geometry">
            <mxPoint x="140" y="320" as="sourcePoint" />
            <mxPoint x="235" y="189" as="targetPoint" />
          </mxGeometry>
        </mxCell>
        <mxCell id="HJMxeG1oSkIeelWJfz3V-107" value="" style="endArrow=none;html=1;rounded=0;entryX=0;entryY=0.5;entryDx=0;entryDy=0;" edge="1" parent="1" target="HJMxeG1oSkIeelWJfz3V-69">
          <mxGeometry width="50" height="50" relative="1" as="geometry">
            <mxPoint x="140" y="400" as="sourcePoint" />
            <mxPoint x="235" y="189" as="targetPoint" />
          </mxGeometry>
        </mxCell>
        <mxCell id="HJMxeG1oSkIeelWJfz3V-108" value="" style="endArrow=none;html=1;rounded=0;entryX=0;entryY=0.5;entryDx=0;entryDy=0;" edge="1" parent="1">
          <mxGeometry width="50" height="50" relative="1" as="geometry">
            <mxPoint x="130" y="400" as="sourcePoint" />
            <mxPoint x="170" y="520" as="targetPoint" />
          </mxGeometry>
        </mxCell>
        <mxCell id="HJMxeG1oSkIeelWJfz3V-109" value="" style="endArrow=none;html=1;rounded=0;entryX=0.007;entryY=0.598;entryDx=0;entryDy=0;entryPerimeter=0;" edge="1" parent="1" target="HJMxeG1oSkIeelWJfz3V-75">
          <mxGeometry width="50" height="50" relative="1" as="geometry">
            <mxPoint x="110" y="400" as="sourcePoint" />
            <mxPoint x="180" y="530" as="targetPoint" />
            <Array as="points">
              <mxPoint x="110" y="604" />
            </Array>
          </mxGeometry>
        </mxCell>
      </root>
    </mxGraphModel>
  </diagram>
</mxfile>
